<?xml version="1.0" encoding="UTF-8" standalone="no"?>
<svg
   xmlns:dc="http://purl.org/dc/elements/1.1/"
   xmlns:cc="http://creativecommons.org/ns#"
   xmlns:rdf="http://www.w3.org/1999/02/22-rdf-syntax-ns#"
   xmlns:svg="http://www.w3.org/2000/svg"
   xmlns="http://www.w3.org/2000/svg"
   xmlns:sodipodi="http://sodipodi.sourceforge.net/DTD/sodipodi-0.dtd"
   xmlns:inkscape="http://www.inkscape.org/namespaces/inkscape"
   width="114.85276mm"
   height="74.411339mm"
   viewBox="0 0 114.85276 74.41134"
   version="1.1"
   id="svg1019"
   inkscape:version="1.0.1 (3bc2e813f5, 2020-09-07)"
   sodipodi:docname="livtechlogo.svg">
  <defs
     id="defs1013" />
  <sodipodi:namedview
     id="base"
     pagecolor="#ffffff"
     bordercolor="#666666"
     borderopacity="1.0"
     inkscape:pageopacity="0.0"
     inkscape:pageshadow="2"
     inkscape:zoom="0.7"
     inkscape:cx="270.86281"
     inkscape:cy="172.53768"
     inkscape:document-units="mm"
     inkscape:current-layer="layer1"
     inkscape:document-rotation="0"
     showgrid="false"
     fit-margin-top="0"
     fit-margin-left="0"
     fit-margin-right="0"
     fit-margin-bottom="0"
     inkscape:pagecheckerboard="true"
     inkscape:window-width="1366"
     inkscape:window-height="728"
     inkscape:window-x="0"
     inkscape:window-y="0"
     inkscape:window-maximized="0" />
  <metadata
     id="metadata1016">
    <rdf:RDF>
      <cc:Work
         rdf:about="">
        <dc:format>image/svg+xml</dc:format>
        <dc:type
           rdf:resource="http://purl.org/dc/dcmitype/StillImage" />
        <dc:title></dc:title>
      </cc:Work>
    </rdf:RDF>
  </metadata>
  <g
     inkscape:label="Layer 1"
     inkscape:groupmode="layer"
     id="layer1"
     transform="translate(42.982301,-54.205206)">
    <path
       inkscape:connector-curvature="0"
       id="path932-1-7-7"
       d="m 68.554168,101.85388 c -1.33247,-0.35821 -2.19943,-1.65402 -1.99339,-2.979392 0.17997,-1.15765 1.0938,-2.07147 2.25145,-2.25145 1.57437,-0.24476 3.05823,1.03325 3.05823,2.63399 0,1.713032 -1.68777,3.034662 -3.31629,2.596852 z m 1.2902,-0.56715 c 0.6959,-0.23443 1.14561,-0.68689 1.38556,-1.394042 0.15467,-0.45578 0.11762,-1.04746 -0.0939,-1.49943 -0.62751,-1.34096 -2.33712,-1.67596 -3.40395,-0.667 -0.84452,0.79872 -0.87801,2.13707 -0.0748,2.986422 0.26521,0.28042 0.70045,0.54416 1.02296,0.61987 0.34692,0.0814 0.84439,0.0618 1.16405,-0.0459 z m -1.8388,-2.079252 v -1.38739 h 0.74988 c 0.41933,0 0.83325,0.025 0.93899,0.0567 0.29584,0.0886 0.45408,0.28773 0.48033,0.60433 0.0279,0.33678 -0.08,0.58062 -0.31225,0.70573 l -0.16938,0.0912 0.16723,0.13784 c 0.1368,0.11275 0.67224,1.028742 0.67224,1.150002 0,0.016 -0.16701,0.029 -0.37112,0.029 h -0.37113 l -0.22206,-0.44215 c -0.24764,-0.493082 -0.35892,-0.598392 -0.6323,-0.598392 h -0.18719 v 0.520272 0.52027 h -0.37161 -0.37163 z m 1.39562,-0.29516 c 0.12515,-0.15454 0.11375,-0.33062 -0.0308,-0.47512 -0.097,-0.097 -0.17225,-0.12162 -0.37161,-0.12162 h -0.25001 v 0.37776 0.37776 l 0.28075,-0.0233 c 0.21431,-0.0178 0.30226,-0.0498 0.37162,-0.13549 z"
       style="fill:#666666;fill-opacity:1;stroke-width:0.0495498" />
    <path
       inkscape:connector-curvature="0"
       inkscape:export-ydpi="300"
       inkscape:export-xdpi="300"
       inkscape:export-filename="C:\Users\luis\path826-43.png"
       id="path905-2-0-2-1"
       d="m 11.815389,90.895908 c -2.1016094,-0.47214 -3.6907604,-2.99769 -3.2763094,-5.20686 0.105878,-0.56418 0.72707,-1.73732 1.380519,-2.60698 1.9617224,-2.6108 1.9745514,-3.98605 0.0649,-6.95864 -0.621869,-0.96804 -1.317519,-2.23811 -1.545889,-2.82241 -0.999641,-2.55768 -2.409,-3.3388 -6.024041,-3.3388 -2.30234896,0 -2.85034096,-0.10107 -3.705389,-0.68295 -1.531451,-1.04231 -2.172542,-2.0933 -2.195301,-3.59901 -0.0413,-2.73017 1.80649,-4.65045 4.47486104,-4.65045 2.10220896,0 3.19084796,0.834 4.62232096,3.54111 1.632728,3.08771 2.18349,3.41387 5.8053794,3.43795 3.307738,0.022 4.295708,0.39877 5.445518,2.07682 0.46968,0.68545 0.66907,1.42736 0.66907,2.48952 0,1.2886 -0.20662,1.82623 -1.39262,3.62357 -1.27514,1.93241 -1.38225,2.2385 -1.26979,3.6281 0.0914,1.13023 0.42761,1.97582 1.31674,3.31249 1.01097,1.51983 1.1939,2.03967 1.1939,3.39244 0,3.04635 -2.54475,5.04237 -5.563869,4.3641 z"
       style="fill:#666666;fill-opacity:1;stroke-width:0.303527" />
    <path
       inkscape:connector-curvature="0"
       inkscape:export-ydpi="300"
       inkscape:export-xdpi="300"
       inkscape:export-filename="C:\Users\luis\path826-43.png"
       id="path903-6-5-9-3"
       d="m -0.98291936,119.25284 c -1.86507204,-0.64376 -3.13655104,-2.00943 -3.51536004,-3.77575 -0.15562,-0.7256 -0.282941,-3.30596 -0.282941,-5.73412 v -4.41482 h -1.644419 -1.644412 v -1.9643 -1.96431 l 3.229102,-3.221942 3.22911,-3.22194 H 0.09229964 1.7964376 v 3.03585 3.035852 h 2.909361 2.909351 v 2.15039 2.1504 h -2.909351 -2.909361 v 4.06725 4.06726 l 0.767051,0.76704 c 0.748941,0.74893 0.816121,0.7649 2.84611,0.67625 l 2.079062,-0.0907 0.141859,1.89741 c 0.109389,1.46301 0.0596,1.96637 -0.217591,2.19865 -1.088679,0.91237 -6.146088,1.11815 -8.39584796,0.34162 z"
       style="fill:#666666;fill-opacity:1;stroke-width:0.252987" />
    <path
       inkscape:connector-curvature="0"
       inkscape:export-ydpi="300"
       inkscape:export-xdpi="300"
       inkscape:export-filename="C:\Users\luis\path826-43.png"
       id="path901-9-6-4-0"
       d="m 18.526628,100.55624 c -0.41479,-0.006 -0.84349,0.004 -1.28667,0.0311 -2.72419,0.16432 -4.667408,0.88557 -6.269839,2.32629 -1.5894604,1.42907 -2.5028104,3.14488 -2.8757504,5.40316 -0.903471,5.47069 2.1468604,10.07273 7.4077794,11.17492 0.60162,0.12604 2.57395,0.19662 4.38281,0.15713 2.69063,-0.0587 3.61094,-0.18272 5.05975,-0.68188 l 1.77091,-0.61023 -0.0914,-2.15039 c -0.0502,-1.18271 -0.11926,-2.18132 -0.15368,-2.21957 -0.0344,-0.0383 -0.59394,0.158 -1.2432,0.43631 -1.67458,0.7178 -4.27213,1.11583 -6.06032,0.92893 -2.55514,-0.26707 -4.29194,-1.3925 -4.83147,-3.13022 l -0.17689,-0.56923 h 6.8781 6.87759 l -0.10524,-2.34013 c -0.12607,-2.79786 -0.82338,-4.55563 -2.44885,-6.172 -1.70967,-1.70011 -3.93008,-2.54321 -6.83362,-2.58422 z m -0.33995,4.27261 c 0.74827,0.0129 1.49962,0.18252 2.02933,0.50548 0.81797,0.4987 1.80243,2.17705 1.8139,3.09267 0.005,0.40296 -0.34894,0.44273 -3.93612,0.44273 h -3.94107 l 0.17393,-0.8222 c 0.24808,-1.17306 0.97643,-2.26961 1.84848,-2.78287 0.51814,-0.30496 1.26328,-0.44866 2.01155,-0.43581 z"
       style="fill:#666666;fill-opacity:1;stroke-width:0.252987" />
    <path
       inkscape:connector-curvature="0"
       inkscape:export-ydpi="300"
       inkscape:export-xdpi="300"
       inkscape:export-filename="C:\Users\luis\path826-43.png"
       id="path897-9-6-0-2"
       d="m 36.208848,119.35875 c -4.92048,-1.37871 -7.77008,-5.85221 -6.91345,-10.85318 0.88457,-5.16409 4.80726,-7.98418 11.10582,-7.98418 1.55778,0 5.56601,0.57265 5.82566,0.83229 0.0958,0.0958 -0.38699,4.54111 -0.50615,4.66028 -0.0432,0.0432 -0.58015,-0.10783 -1.19322,-0.33563 -0.67278,-0.24999 -1.91697,-0.41925 -3.13855,-0.42694 -2.30673,-0.0145 -3.63563,0.50201 -4.77501,1.85607 -0.83883,0.9969 -1.0035,1.66324 -0.86935,3.5179 0.13362,1.84722 1.02574,3.13022 2.70756,3.89385 1.88839,0.85743 5.22958,0.66384 7.9333,-0.45966 0.40361,-0.16772 0.44273,0.0298 0.44273,2.23668 v 2.42066 l -1.32819,0.4156 c -1.91956,0.60064 -7.47241,0.73589 -9.29115,0.22626 z"
       style="fill:#666666;fill-opacity:1;stroke-width:0.252987" />
    <path
       inkscape:connector-curvature="0"
       inkscape:export-ydpi="300"
       inkscape:export-xdpi="300"
       inkscape:export-filename="C:\Users\luis\path826-43.png"
       id="path895-6-8-3-1"
       d="M -42.982301,106.08711 V 92.931768 h 1.64442 1.64441 v 13.155342 13.15534 h -1.64441 -1.64442 z"
       style="fill:#3ab2e2;fill-opacity:1;stroke-width:0.252987" />
    <path
       inkscape:connector-curvature="0"
       inkscape:export-ydpi="300"
       inkscape:export-xdpi="300"
       inkscape:export-filename="C:\Users\luis\path826-43.png"
       id="path893-6-6-2-1"
       d="m -35.139701,110.1349 v -9.10754 h 1.64442 1.64443 v 9.10754 9.10755 h -1.64443 -1.64442 z"
       style="fill:#3ab2e2;fill-opacity:1;stroke-width:0.252987" />
    <path
       inkscape:connector-curvature="0"
       inkscape:export-ydpi="300"
       inkscape:export-xdpi="300"
       inkscape:export-filename="C:\Users\luis\path826-43.png"
       id="path891-7-7-9-0"
       d="m -25.751111,110.32464 c -2.10343,-4.90479 -3.82407,-9.00318 -3.82364,-9.10754 5.03e-4,-0.10435 0.77817,-0.18974 1.72831,-0.18974 h 1.72752 l 2.99166,7.0204 c 1.64541,3.86121 3.06074,7.1013 3.14517,7.20019 0.0844,0.0989 1.53565,-3.03184 3.22491,-6.95716 l 3.07138,-7.13694 1.827491,-0.075 c 1.51258,-0.0621 1.80322,-0.0118 1.6867,0.29194 -0.0774,0.2018 -1.826221,4.30547 -3.886161,9.11926 l -3.74535,8.75236 h -2.06179 -2.06178 z"
       style="fill:#3ab2e2;fill-opacity:1;stroke-width:0.252987" />
    <path
       inkscape:connector-curvature="0"
       inkscape:export-ydpi="300"
       inkscape:export-xdpi="300"
       inkscape:export-filename="C:\Users\luis\path826-43.png"
       id="path889-3-7-9-2"
       d="M 48.599098,106.2136 V 93.184758 h 3.28883 3.28884 v 5.08595 5.085952 l 0.93584,-0.82168 c 1.67171,-1.46778 2.93782,-1.88859 5.64182,-1.87516 2.85808,0.0143 4.29389,0.57339 5.70483,2.22176 1.466,1.71268 1.63181,2.7243 1.63181,9.95561 v 6.40526 h -3.16234 -3.16234 l -0.006,-5.123 c -0.003,-2.81764 -0.10961,-5.56956 -0.23618,-6.11536 -0.33004,-1.42297 -1.03712,-2.2457 -2.27312,-2.64489 -1.44287,-0.46602 -2.83942,-0.0486 -4.11933,1.23135 l -0.95493,0.95496 v 5.84847 5.84847 h -3.28884 -3.28883 z"
       style="fill:#666666;fill-opacity:1;stroke-width:0.252987" />
    <path
       inkscape:connector-curvature="0"
       inkscape:export-ydpi="300"
       inkscape:export-xdpi="300"
       inkscape:export-filename="C:\Users\luis\path826-43.png"
       id="path887-4-8-2-0"
       d="m -0.85818236,83.493078 c -2.67476804,-1.16461 -3.49945804,-4.97521 -1.53868904,-7.10973 1.95177004,-2.1247 4.82872,-2.09112 6.857111,0.0801 1.10822,1.18623 1.243668,3.8878 0.26753,5.33643 -1.274161,1.89089 -3.548581,2.58033 -5.58595196,1.69326 z"
       style="fill:#3ab2e2;fill-opacity:1;stroke-width:0.303527" />
    <path
       inkscape:connector-curvature="0"
       inkscape:export-ydpi="300"
       inkscape:export-xdpi="300"
       inkscape:export-filename="C:\Users\luis\path826-43.png"
       id="path885-6-8-3-0"
       d="m 23.131258,83.497668 c -0.5091,-0.22174 -1.28905,-0.83507 -1.73322,-1.36293 -2.7281,-3.24218 0.20728,-7.98581 4.44923,-7.19001 4.14055,0.77677 4.81931,6.654 0.97035,8.402 -1.46294,0.6644 -2.41779,0.7035 -3.68636,0.15094 z"
       style="fill:#666666;fill-opacity:1;stroke-width:0.303527" />
    <path
       inkscape:connector-curvature="0"
       inkscape:export-ydpi="300"
       inkscape:export-xdpi="300"
       inkscape:export-filename="C:\Users\luis\path826-43.png"
       id="path883-6-0-9-7"
       d="m 23.146288,69.840138 c -1.22244,-0.53959 -1.91118,-1.3629 -3.01724,-3.60675 -1.28236,-2.60153 -2.11365,-3.03478 -5.89398,-3.0718 -2.551328,-0.025 -3.053409,-0.11926 -3.91743,-0.73553 -1.2816684,-0.91414 -1.8927684,-2.12744 -1.8913504,-3.7551 0.0021,-3.15254 3.0475214,-5.27712 5.9737904,-4.16838 1.32151,0.50071 2.19045,1.4685 3.31327,3.69014 1.35266,2.67647 2.06484,3.05023 5.88678,3.08944 2.50695,0.0257 3.01482,0.12222 3.87601,0.73646 4.35393,3.10546 0.55062,9.97582 -4.32985,7.82152 z"
       style="fill:#3ab2e2;fill-opacity:1;stroke-width:0.303527" />
    <path
       inkscape:connector-curvature="0"
       inkscape:export-ydpi="300"
       inkscape:export-xdpi="300"
       inkscape:export-filename="C:\Users\luis\path826-43.png"
       id="path826-4-1-6-6-2"
       d="m -35.185001,96.214318 c -0.61945,-0.61945 -0.73253,-0.89673 -0.59329,-1.45467 0.36957,-1.48092 1.93676,-2.20419 3.32749,-1.53568 2.22894,1.07144 1.36961,3.75568 -1.20235,3.75568 -0.51579,0 -1.01686,-0.25034 -1.53185,-0.76533 z"
       style="fill:#3ab2e2;fill-opacity:1;stroke-width:0.252987" />
    <text
       id="text9321-7-7-0-8"
       y="127.27715"
       x="-15.088965"
       style="font-style:normal;font-weight:normal;font-size:6.48481px;line-height:1.25;font-family:sans-serif;letter-spacing:0px;word-spacing:0px;fill:#808184;fill-opacity:1;stroke:none;stroke-width:0.405299"
       xml:space="preserve"><tspan
         style="fill:#808184;fill-opacity:1;stroke-width:0.405299"
         y="127.27715"
         x="-15.088965"
         id="tspan9319-8-0-4-8"
         sodipodi:role="line">soluções que se conectam</tspan></text>
  </g>
</svg>
